<svg id="Layer_1" data-name="Layer 1" xmlns="http://www.w3.org/2000/svg" xmlns:xlink="http://www.w3.org/1999/xlink" viewBox="0 0 579.21 625.75"><defs><linearGradient id="linear-gradient" x1="225.42" y1="-879.64" x2="225.42" y2="-830.66" gradientTransform="matrix(1, 0, 0, -1, 12, -779.11)" gradientUnits="userSpaceOnUse"><stop offset="0" stop-color="gray" stop-opacity="0.25"/><stop offset="0.54" stop-color="gray" stop-opacity="0.12"/><stop offset="1" stop-color="gray" stop-opacity="0.1"/></linearGradient><linearGradient id="linear-gradient-2" x1="221.59" y1="-853.46" x2="221.59" y2="-844.41" xlink:href="#linear-gradient"/><linearGradient id="linear-gradient-3" x1="232.73" y1="-859.72" x2="232.73" y2="-850.67" xlink:href="#linear-gradient"/><linearGradient id="linear-gradient-4" x1="227.16" y1="-865.98" x2="227.16" y2="-856.94" xlink:href="#linear-gradient"/><linearGradient id="linear-gradient-5" x1="242.7" y1="-872.25" x2="242.7" y2="-863.2" xlink:href="#linear-gradient"/><linearGradient id="linear-gradient-6" x1="171.6" y1="-840.08" x2="171.6" y2="-791.1" xlink:href="#linear-gradient"/><linearGradient id="linear-gradient-7" x1="194.33" y1="-858.69" x2="194.33" y2="-809.71" xlink:href="#linear-gradient"/><linearGradient id="linear-gradient-8" x1="346" y1="-920.22" x2="346" y2="-905.85" gradientTransform="matrix(1, 0, 0, -1, -147, -847.48)" xlink:href="#linear-gradient"/></defs><line x1="302.42" y1="564.47" x2="302.42" y2="287.15" style="fill:none;stroke:#fff;stroke-linecap:square;stroke-linejoin:round;stroke-width:4.10145637819446px"/><path d="M263.11,417.91C262.28,422.21,334.27,537,340,537c7.39,0,24.37-12.59,24.37-16.15S332,434.6,332,420.64,270.22,380.94,263.11,417.91Z" style="fill:#fff;stroke:#fff;stroke-miterlimit:10"/><line x1="250.35" y1="596.43" x2="250.35" y2="285.08" style="fill:none;stroke:#fff;stroke-linejoin:round;stroke-width:4.11931344447315px"/><rect x="354.54" y="324.77" width="323.45" height="19.88" transform="translate(72.05 760.44) rotate(-76.74)" style="fill:none;stroke:#fff;stroke-miterlimit:10"/><rect x="390.62" y="370.4" width="19.88" height="186.05" transform="translate(-142.39 747.01) rotate(-76.74)" style="fill:none;stroke:#fff;stroke-miterlimit:10"/><path d="M381,263.25c10.76-48.68,34.43-104.58,77.74-121.55" style="fill:none;stroke:#fff;stroke-linecap:round;stroke-linejoin:round;stroke-width:1.47933419936436px"/><path d="M499.19,138.93c18,7.23,25.72,29.52,25.72,46.15C524.91,278,505.79,371,494.74,378,475.21,390.41,384,360.83,375.8,341.3c-2.43-5.78-2.91-22.13-.59-43.23" style="fill:none;stroke:#fff;stroke-linecap:round;stroke-linejoin:round;stroke-width:1.47933419936436px"/><path d="M493.6,113.13c-.59,3.55-.64,12.19,7.65,31.12a50.14,50.14,0,0,1-20.31,8.62c-1.25.22-2.47.38-3.66.49" style="fill:none;stroke:#fff;stroke-linecap:round;stroke-linejoin:round;stroke-width:1.47933419936436px"/><path d="M489.78,90.59c3,0,8.33,1.51,8.3,6.47s-4.94,7.81-8,7.79" style="fill:none;stroke:#fff;stroke-linecap:round;stroke-linejoin:round;stroke-width:0.947347446038562px"/><path d="M447.1,252.54c-3.31,7.93-8.28,21.89-9.17,34.91-8.88-3.55-94.09-42-110.06-42-31.36,0-39.65,10.06-39.65,14.79,0,8.88,38.46,7.69,43.79,10.65s110.65,71.6,123.67,71.6c11.76,0,39.46-45.39,45.57-64.2" style="fill:none;stroke:#fff;stroke-linecap:round;stroke-linejoin:round;stroke-width:1.47933419936436px"/><path d="M516.19,259.94c-3.44,10.94-7.65,18.46-11.39,18.63-13,.6-60.36-24.26-63.91-31.95-2.37-5.07,15.38-40.51,35.89-60.16" style="fill:none;stroke:#fff;stroke-linecap:round;stroke-linejoin:round;stroke-width:1.47933419936436px"/><rect x="15.43" y="273.25" width="301.78" height="11.83" style="fill:none;stroke:#fff;stroke-miterlimit:10"/><line x1="33.78" y1="599.89" x2="33.78" y2="287.31" style="fill:none;stroke:#fff;stroke-linecap:square;stroke-linejoin:round;stroke-width:4.12749292774796px"/><line x1="88.22" y1="563.79" x2="88.22" y2="287.31" style="fill:none;stroke:#fff;stroke-linecap:square;stroke-linejoin:round;stroke-width:4.09527284544817px"/><rect x="236.74" y="266.74" width="68.05" height="6.51" style="fill:#fff;stroke:#fff;stroke-miterlimit:10"/><rect x="220.33" y="180.29" width="1.96" height="92.68" transform="translate(-63.32 87.62) rotate(-19.65)" style="fill:#fff;stroke:#fff;stroke-miterlimit:10"/><line x1="457.62" y1="483.08" x2="498.91" y2="606.95" style="fill:none;stroke:#fff;stroke-linecap:round;stroke-linejoin:round;stroke-width:4.14213575822021px"/><line x1="357.3" y1="550.45" x2="318.07" y2="602.58" style="fill:none;stroke:#fff;stroke-linecap:round;stroke-linejoin:round;stroke-width:4.14213575822021px"/><line x1="414.04" y1="475.4" x2="370.76" y2="532.91" style="fill:none;stroke:#fff;stroke-linecap:round;stroke-linejoin:round;stroke-width:4.14213575822021px"/><line x1="349.9" y1="460.28" x2="254.94" y2="586.48" style="fill:none;stroke:#fff;stroke-linecap:round;stroke-linejoin:round;stroke-width:4.14213575822021px"/><line x1="395.43" y1="471.88" x2="436.72" y2="595.74" style="fill:none;stroke:#fff;stroke-linecap:round;stroke-linejoin:round;stroke-width:4.14213575822021px"/><path d="M490.06,379.89c-26.37,6.71-106.57-20.35-114.26-38.59a21.32,21.32,0,0,1-1.19-4.65c-34.85-9-72.39-15.56-105-15.56-53.7,0-97.63,235.15-97.63,239.2,4.31,1.27,33.44,5.33,33.44,5.33s73-149,75-159.14c7.35,5.07,99.94,53.21,135.69,53.21,39.18,0,75.9-40.24,75.9-77.28C492,381.78,491.32,380.94,490.06,379.89Z" style="fill:#fff;stroke:#fff;stroke-miterlimit:10"/><polyline points="204.35 562.96 196.85 607.65 125.48 596.33 181.93 585.35 186.67 560" style="fill:none;stroke:#fff;stroke-linecap:round;stroke-linejoin:round;stroke-width:1.47933419936436px"/><polyline points="360.59 520.53 386.38 557.8 327.33 599.45 360.14 552.21 345.86 530.75" style="fill:none;stroke:#fff;stroke-linecap:round;stroke-linejoin:round;stroke-width:1.47933419936436px"/><circle cx="448.51" cy="79.34" r="2.04" style="fill:#fff;stroke:#fff;stroke-miterlimit:10"/><path d="M426.45,28.25c2.12,3.84,9.26,15.58,22.85,18.84a30.86,30.86,0,0,0,5.6.81" style="fill:none;stroke:#fff;stroke-linecap:round;stroke-miterlimit:10;stroke-width:1.18346735949149px"/><path d="M492.28,111.53a13.28,13.28,0,0,0,5.15,3.25c6.2,2.09,12.08-1.67,13.3-2.44,9.71-6.13,11-23,8.41-34.46-3.62-16-15.7-24.82-19-27.14a52,52,0,0,0-19.44-8.12c-10.19-2-16.16-.59-22.61-2.45-6.61-1.9-7-1.19-23.7-18.84" style="fill:none;stroke:#fff;stroke-linecap:round;stroke-miterlimit:10;stroke-width:1.18346735949149px"/><path d="M420.83,34.48a43.32,43.32,0,0,0,6.11,10.17,45.09,45.09,0,0,0,19.53,13.84" style="fill:none;stroke:#fff;stroke-linecap:round;stroke-miterlimit:10;stroke-width:1.18346735949149px"/><path d="M445.42,65.49A65.07,65.07,0,0,1,441.51,78c-2.55,5.94-6.61,10.36-8.2,14a3.34,3.34,0,0,0,.75,3.36c1,1.54,2.92,2.53,4.47,3.91.76.68,1.33,1.06,1.3,1.68-.07,1.91-.18,3.91-.37,5.4-.36,2.92.55,5.34,2.24,8.76,3.19,6.51,10.28,11.29,17.14,11.37.5,0,.91,0,1.18,0" style="fill:none;stroke:#fff;stroke-linecap:round;stroke-miterlimit:10;stroke-width:1.21919316080397px"/><path d="M460.27,126.74a25.4,25.4,0,0,1,2.17,15.92" style="fill:none;stroke:#fff;stroke-linecap:round;stroke-miterlimit:10;stroke-width:1.21919316080397px"/><path d="M440.68,111.5l4.75-3.21" style="fill:none;stroke:#fff;stroke-linecap:round;stroke-miterlimit:10;stroke-width:1.18346735949149px"/><rect x="143.86" y="9.27" width="129.39" height="94.94" rx="7.96" style="fill:none;stroke:#fff;stroke-miterlimit:10;stroke-width:1.75px"/><rect x="213.18" y="51.55" width="48.48" height="48.98" style="stroke:#fff;stroke-miterlimit:10;fill:url(#linear-gradient)"/><rect x="213.84" y="59.3" width="47.17" height="39.91" style="fill:#fff;stroke:#fff;stroke-miterlimit:10"/><rect x="213.84" y="52.04" width="47.17" height="7.26" style="fill:#bcbcbc;stroke:#fff;stroke-miterlimit:10"/><circle cx="217.47" cy="55.67" r="1.81" style="fill:#ef5455;stroke:#231f20;stroke-miterlimit:10"/><circle cx="222.08" cy="55.67" r="1.81" style="fill:#f5ea14;stroke:#231f20;stroke-miterlimit:10"/><circle cx="226.7" cy="55.67" r="1.81" style="fill:#83caa0;stroke:#231f20;stroke-miterlimit:10"/><rect x="217.99" y="68.64" width="38.86" height="2.44" style="fill:#dfdfdf;stroke:#fff;stroke-miterlimit:10"/><rect x="217.99" y="74.9" width="38.86" height="2.44" style="fill:#dfdfdf;stroke:#fff;stroke-miterlimit:10"/><rect x="217.99" y="81.17" width="38.86" height="2.44" style="fill:#dfdfdf;stroke:#fff;stroke-miterlimit:10"/><rect x="217.99" y="87.43" width="38.86" height="2.44" style="fill:#dfdfdf;stroke:#fff;stroke-miterlimit:10"/><circle cx="233.59" cy="69.83" r="4.52" style="stroke:#fff;stroke-miterlimit:10;fill:url(#linear-gradient-2)"/><circle cx="244.73" cy="76.09" r="4.52" style="stroke:#fff;stroke-miterlimit:10;fill:url(#linear-gradient-3)"/><circle cx="239.16" cy="82.35" r="4.52" style="stroke:#fff;stroke-miterlimit:10;fill:url(#linear-gradient-4)"/><circle cx="254.7" cy="88.62" r="4.52" style="stroke:#fff;stroke-miterlimit:10;fill:url(#linear-gradient-5)"/><circle cx="233.59" cy="69.83" r="3.83" style="fill:#673493;stroke:#fff;stroke-miterlimit:10"/><circle cx="244.73" cy="76.09" r="3.83" style="fill:#673493;stroke:#fff;stroke-miterlimit:10"/><circle cx="239.16" cy="82.35" r="3.83" style="fill:#673493;stroke:#fff;stroke-miterlimit:10"/><circle cx="254.7" cy="88.62" r="3.83" style="fill:#f8c815;stroke:#fff;stroke-miterlimit:10"/><rect x="159.36" y="11.99" width="48.48" height="48.98" style="stroke:#fff;stroke-miterlimit:10;fill:url(#linear-gradient-6)"/><rect x="160.02" y="19.75" width="47.17" height="39.91" style="fill:#fff;stroke:#fff;stroke-miterlimit:10"/><rect x="160.02" y="12.49" width="47.17" height="7.26" style="fill:#bcbcbc"/><circle cx="163.65" cy="16.12" r="1.81" style="fill:#ef5455"/><circle cx="168.26" cy="16.12" r="1.81" style="fill:#f5ea14"/><circle cx="172.88" cy="16.12" r="1.81" style="fill:#83caa0"/><rect x="170.33" y="29.31" width="4.44" height="20.78" style="fill:#dfdfdf;stroke:#fff;stroke-miterlimit:10"/><rect x="177.7" y="29.31" width="4.44" height="20.78" style="fill:#dfdfdf;stroke:#fff;stroke-miterlimit:10"/><rect x="185.06" y="29.31" width="4.44" height="20.78" style="fill:#dfdfdf;stroke:#fff;stroke-miterlimit:10"/><rect x="192.42" y="29.31" width="4.44" height="20.78" style="fill:#dfdfdf;stroke:#fff;stroke-miterlimit:10"/><rect x="170.33" y="39.7" width="4.44" height="10.39" style="fill:#488ecb;stroke:#fff;stroke-miterlimit:10"/><g style="opacity:0.400000005960465"><rect x="170.33" y="35.36" width="4.44" height="4.54" style="fill:#488ecb;stroke:#e6e7e8;stroke-miterlimit:10"/></g><rect x="177.74" y="37.51" width="4.44" height="4.54" style="fill:#83caa0;stroke:#231f20;stroke-miterlimit:10;opacity:0.400000005960465;isolation:isolate"/><rect x="192.43" y="37.75" width="4.44" height="4.54" style="fill:#f5ea14;stroke:#231f20;stroke-miterlimit:10;opacity:0.400000005960465;isolation:isolate"/><rect x="179.92" y="41.96" width="2.22" height="8.13" style="fill:#f8c815;stroke:#fff;stroke-miterlimit:10"/><rect x="185.06" y="38.19" width="4.44" height="11.9" style="fill:#673493;stroke:#231f20;stroke-miterlimit:10"/><rect x="185.06" y="34.05" width="4.44" height="4.14" style="fill:#673493;stroke:#231f20;stroke-miterlimit:10;opacity:0.400000005960465;isolation:isolate"/><rect x="192.42" y="42.32" width="4.44" height="7.77" style="fill:#f5ea14;stroke:#231f20;stroke-miterlimit:10"/><rect x="182.09" y="30.61" width="48.48" height="48.98" style="stroke:#fff;stroke-miterlimit:10;fill:url(#linear-gradient-7)"/><rect x="182.75" y="38.36" width="47.17" height="39.91" style="fill:#fff;stroke:#fff;stroke-miterlimit:10"/><rect x="182.75" y="31.1" width="47.17" height="7.26" style="fill:#bcbcbc;stroke:#fff;stroke-miterlimit:10"/><circle cx="186.38" cy="34.73" r="1.81" style="fill:#ef5455;stroke:#fff;stroke-miterlimit:10"/><circle cx="191" cy="34.73" r="1.81" style="fill:#f5ea14;stroke:#fff;stroke-miterlimit:10"/><circle cx="195.61" cy="34.73" r="1.81" style="fill:#83caa0;stroke:#fff;stroke-miterlimit:10"/><path d="M206.33,44.62h-.08V72h.08a13.69,13.69,0,0,0,0-27.38Z" style="fill:#488ecb;stroke:#fff;stroke-miterlimit:10"/><path d="M206.25,44.62a13.69,13.69,0,0,0-13.6,13.61h13.6Z" style="fill:#f8c815;stroke:#fff;stroke-miterlimit:10"/><path d="M191.91,58.37v.09A14.28,14.28,0,0,0,206.1,72.74V58.37Z" style="stroke:#fff;stroke-miterlimit:10;fill:url(#linear-gradient-8)"/><path d="M192.32,58.56v.08a13.69,13.69,0,0,0,13.6,13.69V58.56Z" style="fill:#673493;stroke:#fff;stroke-miterlimit:10"/><rect x="38.53" y="142.66" width="134.06" height="96.55" rx="8.17" style="fill:none;stroke:#fff;stroke-miterlimit:10;stroke-width:1.73378457129002px"/><rect x="61.32" y="201.87" width="20.17" height="21.46" style="fill:#673493;stroke:#fff;stroke-miterlimit:10"/><rect x="61.32" y="195.27" width="20.17" height="6.6" style="fill:none;stroke:#fff;stroke-miterlimit:10"/><rect x="61.32" y="223.33" width="20.17" height="6.03" style="fill:none;stroke:#fff;stroke-miterlimit:10"/><rect x="128.58" y="201.87" width="20.18" height="21.46" style="fill:#673493;stroke:#fff;stroke-miterlimit:10"/><rect x="128.58" y="195.27" width="20.18" height="6.6" style="fill:none;stroke:#fff;stroke-miterlimit:10"/><rect x="128.58" y="223.33" width="20.18" height="6.03" style="fill:none;stroke:#fff;stroke-miterlimit:10"/><rect x="95.3" y="157.75" width="20.18" height="21.46" style="fill:#673493;stroke:#fff;stroke-miterlimit:10"/><rect x="95.3" y="151.15" width="20.18" height="6.6" style="fill:none;stroke:#fff;stroke-miterlimit:10"/><rect x="95.3" y="179.21" width="20.18" height="6.03" style="fill:none;stroke:#fff;stroke-miterlimit:10"/><line x1="81.49" y1="212.32" x2="128.57" y2="212.32" style="fill:none;stroke:#fff;stroke-miterlimit:10"/><line x1="105.55" y1="185.24" x2="105.55" y2="212.51" style="fill:none;stroke:#fff;stroke-miterlimit:10"/><circle cx="105.55" cy="212.51" r="3.21" style="fill:#f8c815;stroke:#fff;stroke-miterlimit:10"/><rect x="66.36" y="225.46" width="9.4" height="2.22" rx="1.11" style="fill:#673493"/><rect x="134.46" y="225.46" width="9.4" height="2.22" rx="1.11" style="fill:#673493"/><rect x="100.85" y="181.09" width="9.4" height="2.22" rx="1.11" style="fill:#673493"/><polyline points="282.27 126.4 282.27 142.22 266.1 142.22" style="fill:none;stroke:#808184;stroke-miterlimit:10;stroke-width:0.5px"/><polyline points="298.45 126.4 298.45 142.22 282.27 142.22 282.27 126.4" style="fill:none;stroke:#808184;stroke-miterlimit:10;stroke-width:0.5px"/><polyline points="314.62 126.4 314.62 142.22 298.45 142.22 298.45 126.4" style="fill:none;stroke:#808184;stroke-miterlimit:10;stroke-width:0.5px"/><polyline points="330.8 126.4 330.8 142.22 314.62 142.22 314.62 126.4" style="fill:none;stroke:#808184;stroke-miterlimit:10;stroke-width:0.5px"/><polyline points="346.97 126.4 346.97 142.22 330.8 142.22 330.8 126.4" style="fill:none;stroke:#808184;stroke-miterlimit:10;stroke-width:0.5px"/><polyline points="363.14 126.4 363.14 142.22 346.97 142.22 346.97 126.4" style="fill:none;stroke:#808184;stroke-miterlimit:10;stroke-width:0.5px"/><polyline points="379.32 142.22 363.14 142.22 363.14 126.4" style="fill:none;stroke:#808184;stroke-miterlimit:10;stroke-width:0.5px"/><line x1="266.1" y1="142.22" x2="266.1" y2="158.05" style="fill:none;stroke:#808184;stroke-miterlimit:10;stroke-width:0.5px"/><rect x="266.1" y="142.22" width="16.17" height="15.82" style="fill:none;stroke:#808184;stroke-miterlimit:10;stroke-width:0.5px"/><rect x="282.27" y="142.22" width="16.17" height="15.82" style="fill:none;stroke:#808184;stroke-miterlimit:10;stroke-width:0.5px"/><rect x="298.45" y="142.22" width="16.17" height="15.82" style="fill:none;stroke:#808184;stroke-miterlimit:10;stroke-width:0.5px"/><rect x="314.62" y="142.22" width="16.17" height="15.82" style="fill:none;stroke:#808184;stroke-miterlimit:10;stroke-width:0.5px"/><rect x="330.79" y="142.22" width="16.17" height="15.82" style="fill:none;stroke:#808184;stroke-miterlimit:10;stroke-width:0.5px"/><rect x="346.97" y="142.22" width="16.17" height="15.82" style="fill:none;stroke:#808184;stroke-miterlimit:10;stroke-width:0.5px"/><polyline points="379.32 158.05 363.14 158.05 363.14 142.22 379.32 142.22" style="fill:none;stroke:#808184;stroke-miterlimit:10;stroke-width:0.5px"/><line x1="266.1" y1="158.05" x2="266.1" y2="173.87" style="fill:none;stroke:#808184;stroke-miterlimit:10;stroke-width:0.5px"/><rect x="266.1" y="158.05" width="16.17" height="15.82" style="fill:none;stroke:#808184;stroke-miterlimit:10;stroke-width:0.5px"/><rect x="282.27" y="158.05" width="16.17" height="15.82" style="fill:none;stroke:#808184;stroke-miterlimit:10;stroke-width:0.5px"/><rect x="298.45" y="158.05" width="16.17" height="15.82" style="fill:none;stroke:#808184;stroke-miterlimit:10;stroke-width:0.5px"/><rect x="314.62" y="158.05" width="16.17" height="15.82" style="fill:none;stroke:#808184;stroke-miterlimit:10;stroke-width:0.5px"/><rect x="330.79" y="158.05" width="16.17" height="15.82" style="fill:none;stroke:#808184;stroke-miterlimit:10;stroke-width:0.5px"/><rect x="346.97" y="158.05" width="16.17" height="15.82" style="fill:none;stroke:#808184;stroke-miterlimit:10;stroke-width:0.5px"/><polyline points="379.32 173.87 363.14 173.87 363.14 158.05 379.32 158.05" style="fill:none;stroke:#808184;stroke-miterlimit:10;stroke-width:0.5px"/><line x1="266.1" y1="173.87" x2="266.1" y2="189.69" style="fill:none;stroke:#808184;stroke-miterlimit:10;stroke-width:0.5px"/><rect x="266.1" y="173.87" width="16.17" height="15.82" style="fill:none;stroke:#808184;stroke-miterlimit:10;stroke-width:0.5px"/><rect x="282.27" y="173.87" width="16.17" height="15.82" style="fill:none;stroke:#808184;stroke-miterlimit:10;stroke-width:0.5px"/><rect x="298.45" y="173.87" width="16.17" height="15.82" style="fill:none;stroke:#808184;stroke-miterlimit:10;stroke-width:0.5px"/><rect x="314.62" y="173.87" width="16.17" height="15.82" style="fill:none;stroke:#808184;stroke-miterlimit:10;stroke-width:0.5px"/><rect x="330.79" y="173.87" width="16.17" height="15.82" style="fill:none;stroke:#808184;stroke-miterlimit:10;stroke-width:0.5px"/><rect x="346.97" y="173.87" width="16.17" height="15.82" style="fill:none;stroke:#808184;stroke-miterlimit:10;stroke-width:0.5px"/><polyline points="379.32 189.69 363.14 189.69 363.14 173.87 379.32 173.87" style="fill:none;stroke:#808184;stroke-miterlimit:10;stroke-width:0.5px"/><rect x="282.27" y="189.69" width="16.17" height="15.82" style="fill:none;stroke:#808184;stroke-miterlimit:10;stroke-width:0.5px"/><rect x="298.45" y="189.69" width="16.17" height="15.82" style="fill:none;stroke:#808184;stroke-miterlimit:10;stroke-width:0.5px"/><rect x="314.62" y="189.69" width="16.17" height="15.82" style="fill:none;stroke:#808184;stroke-miterlimit:10;stroke-width:0.5px"/><rect x="330.79" y="189.69" width="16.17" height="15.82" style="fill:none;stroke:#808184;stroke-miterlimit:10;stroke-width:0.5px"/><rect x="346.97" y="189.69" width="16.17" height="15.82" style="fill:none;stroke:#808184;stroke-miterlimit:10;stroke-width:0.5px"/><polyline points="379.32 205.52 363.14 205.52 363.14 189.69 379.32 189.69" style="fill:none;stroke:#808184;stroke-miterlimit:10;stroke-width:0.5px"/><line x1="298.45" y1="205.52" x2="314.62" y2="205.52" style="fill:none;stroke:#808184;stroke-miterlimit:10;stroke-width:0.5px"/><line x1="314.62" y1="205.52" x2="330.79" y2="205.52" style="fill:none;stroke:#808184;stroke-miterlimit:10;stroke-width:0.5px"/><line x1="330.79" y1="205.52" x2="346.97" y2="205.52" style="fill:none;stroke:#808184;stroke-miterlimit:10;stroke-width:0.5px"/><line x1="363.14" y1="205.52" x2="379.32" y2="205.52" style="fill:none;stroke:#808184;stroke-miterlimit:10;stroke-width:0.5px"/><rect x="253.53" y="120.18" width="129.39" height="94.94" rx="7.96" style="fill:none;stroke:#fff;stroke-miterlimit:10;stroke-width:1.75px"/><polyline points="269.91 194.69 292.93 176.94 300.21 183.21 326.41 164.52 332.33 170.43 358.86 151.84" style="fill:none;stroke:#673493;stroke-miterlimit:10"/><polygon points="360.53 156.76 364.74 147.72 354.8 148.59 360.53 156.76" style="fill:#673493"/><line x1="266.1" y1="129.2" x2="266.1" y2="206.1" style="fill:none;stroke:#fff;stroke-linecap:round;stroke-miterlimit:10;stroke-width:2.07925319671631px"/><line x1="378.27" y1="205.21" x2="266.12" y2="206.43" style="fill:none;stroke:#fff;stroke-linecap:round;stroke-miterlimit:10;stroke-width:2.07925319671631px"/></svg>